<svg xmlns="http://www.w3.org/2000/svg" width="16.753" height="15.694" viewBox="0 0 16.753 15.694"><defs><style>.a,.b{fill:none;stroke:#adadad;stroke-miterlimit:10;}.a{stroke-linecap:square;}</style></defs><g transform="translate(-1.484 -3.293)"><path class="a" d="M25.76,16a14.9,14.9,0,0,1,2.095,2.4.791.791,0,0,1,0,.9c-.906,1.29-3.794,4.9-7.708,4.9A6.747,6.747,0,0,1,18,23.854" transform="translate(-10.283 -7.716)"/><path class="b" d="M5.8,18.417A13.848,13.848,0,0,1,2.148,14.8a.791.791,0,0,1,0-.9C3.035,12.616,5.881,9,9.862,9a7.5,7.5,0,0,1,4.062,1.29" transform="translate(0 -3.215)"/><path class="a" d="M25.85,22A3.215,3.215,0,0,1,22,25.846" transform="translate(-12.855 -11.574)"/><line class="a" y1="14.279" x2="14.279" transform="translate(2.72 4)"/><path class="b" d="M15.945,20.481a3.213,3.213,0,1,1,4.544-4.544" transform="translate(-8.356 -7.071)"/></g></svg>